
<?xml version="1.0" encoding="utf-8"?>
<!-- Generator: Adobe Illustrator 28.0.0, SVG Export Plug-In . SVG Version: 6.00 Build 0)  -->
<svg version="1.1" id="Layer_1" xmlns="http://www.w3.org/2000/svg" xmlns:xlink="http://www.w3.org/1999/xlink" x="0px" y="0px"
	 viewBox="0 0 841.4 88.4" style="enable-background:new 0 0 841.4 88.4;" xml:space="preserve">
<style type="text/css">
	.st0{fill:#FFC52F;}
</style>
<g>
	<path d="M411.2,48.5h10.5v9c0,2.3-0.3,4.4-1,6.5c-0.7,2.1-1.7,3.9-3.1,5.5c-1.4,1.6-3.2,2.9-5.4,3.8c-2.2,0.9-4.8,1.4-7.8,1.4
		c-3.1,0-5.8-0.5-8-1.4c-2.2-0.9-4-2.2-5.4-3.7c-1.4-1.6-2.5-3.4-3.1-5.5c-0.6-2.1-1-4.3-1-6.6V19.1h11.1v11.6h23.7v9.7h-23.7v15.9
		c0,2.7,0.5,4.8,1.5,6.3c1,1.5,2.7,2.2,5,2.2c2.3,0,3.9-0.7,5-2.2c1.1-1.4,1.6-3.5,1.6-6.2V48.5z"/>
	<path d="M104.9,73.5l-3.7-11.9H79.9l-4.1,11.9H63l20.6-57.8h14L118,73.5H104.9z M90.5,28.7L90.5,28.7l-7.5,23h14.7L90.5,28.7z"/>
	<path d="M157.8,58c-0.3,2.5-1,4.8-2.1,6.8c-1.1,2-2.6,3.8-4.3,5.2c-1.7,1.5-3.7,2.6-6,3.4c-2.2,0.8-4.7,1.2-7.3,1.2
		c-2.9,0-5.6-0.5-8-1.4c-2.4-1-4.5-2.4-6.2-4.4c-1.7-1.9-3.1-4.4-4-7.2c-1-2.9-1.4-6.2-1.4-10.1c0-3.8,0.5-7.1,1.4-9.9
		c1-2.8,2.3-5.1,4-6.8c1.7-1.8,3.8-3.1,6.3-4c2.5-0.9,5.2-1.3,8.2-1.3c2.8,0,5.3,0.4,7.6,1.1c2.3,0.8,4.3,1.9,6,3.3
		c1.7,1.5,3.1,3.2,4,5.2c1,2,1.6,4.3,1.7,6.8h-11.4c-0.3-2.2-1.2-3.9-2.7-5.2c-1.5-1.2-3.3-1.9-5.4-1.9c-1.2,0-2.3,0.2-3.4,0.6
		c-1,0.4-2,1.1-2.7,2c-0.8,1-1.4,2.2-1.9,3.8c-0.5,1.6-0.7,3.6-0.7,5.9c0,4.7,0.8,8.2,2.5,10.4c1.7,2.3,3.6,3.4,5.8,3.4
		c2.2,0,4.1-0.6,5.7-1.8c1.6-1.2,2.5-3,2.7-5.3H157.8z"/>
	<path d="M201.4,58c-0.3,2.5-1,4.8-2.1,6.8c-1.1,2-2.6,3.8-4.3,5.2c-1.7,1.5-3.7,2.6-6,3.4c-2.2,0.8-4.7,1.2-7.3,1.2
		c-2.9,0-5.6-0.5-8-1.4c-2.4-1-4.5-2.4-6.2-4.4c-1.7-1.9-3.1-4.4-4-7.2c-1-2.9-1.4-6.2-1.4-10.1c0-3.8,0.5-7.1,1.4-9.9
		c1-2.8,2.3-5.1,4-6.8c1.7-1.8,3.8-3.1,6.3-4c2.5-0.9,5.2-1.3,8.2-1.3c2.8,0,5.3,0.4,7.6,1.1c2.3,0.8,4.3,1.9,6,3.3
		c1.7,1.5,3.1,3.2,4,5.2c1,2,1.6,4.3,1.7,6.8h-11.4c-0.3-2.2-1.2-3.9-2.7-5.2c-1.5-1.2-3.3-1.9-5.4-1.9c-1.2,0-2.3,0.2-3.4,0.6
		c-1,0.4-2,1.1-2.7,2c-0.8,1-1.4,2.2-1.9,3.8c-0.5,1.6-0.7,3.6-0.7,5.9c0,4.7,0.8,8.2,2.5,10.4c1.7,2.3,3.6,3.4,5.8,3.4
		c2.2,0,4.1-0.6,5.7-1.8c1.6-1.2,2.5-3,2.7-5.3H201.4z"/>
	<path d="M216.8,55.1c0.2,3.2,1.1,5.8,2.8,7.7c1.7,1.9,4,2.9,6.7,2.9c1.9,0,3.5-0.4,4.9-1.3c1.4-0.8,2.3-2,2.7-3.5h11.7
		c-1.3,4.4-3.7,7.8-7,10.2c-3.3,2.4-7.3,3.6-11.8,3.6c-14.3,0-21.4-7.8-21.4-23.3c0-3.3,0.5-6.3,1.4-9c0.9-2.7,2.3-5,4-6.9
		c1.8-1.9,3.9-3.4,6.5-4.4c2.6-1,5.5-1.5,8.8-1.5c6.6,0,11.6,2.1,15,6.4c3.4,4.2,5.1,10.6,5.1,19.1H216.8z M234.6,47.9
		c-0.1-1.6-0.3-2.9-0.8-4.1c-0.5-1.2-1.1-2.2-2-3c-0.8-0.8-1.7-1.4-2.8-1.7c-1-0.4-2.1-0.6-3.2-0.6c-2.3,0-4.2,0.8-5.9,2.5
		s-2.6,4-2.8,6.9H234.6z"/>
	<path d="M252,73.5V15h11.3v58.5H252z"/>
	<path d="M280.2,55.1c0.2,3.2,1.1,5.8,2.8,7.7c1.7,1.9,4,2.9,6.7,2.9c1.9,0,3.5-0.4,4.9-1.3c1.4-0.8,2.3-2,2.7-3.5h11.7
		c-1.3,4.4-3.7,7.8-7,10.2c-3.3,2.4-7.3,3.6-11.8,3.6c-14.3,0-21.4-7.8-21.4-23.3c0-3.3,0.5-6.3,1.4-9c0.9-2.7,2.3-5,4-6.9
		c1.8-1.9,3.9-3.4,6.5-4.4c2.6-1,5.5-1.5,8.8-1.5c6.6,0,11.6,2.1,15,6.4c3.4,4.2,5.1,10.6,5.1,19.1H280.2z M298,47.9
		c-0.1-1.6-0.3-2.9-0.8-4.1c-0.5-1.2-1.1-2.2-2-3c-0.8-0.8-1.7-1.4-2.8-1.7c-1-0.4-2.1-0.6-3.2-0.6c-2.3,0-4.2,0.8-5.9,2.5
		c-1.7,1.7-2.6,4-2.8,6.9H298z"/>
	<path d="M315.3,73.5V30.7h10.6v5.1c0.9-1.4,1.9-2.6,2.9-3.4c1-0.8,2.1-1.4,3.1-1.9c1.1-0.4,2.2-0.7,3.3-0.8
		c1.1-0.1,2.2-0.2,3.4-0.2h1.5v11.6c-1-0.2-2.1-0.3-3.1-0.3c-6.9,0-10.4,3.5-10.4,10.4v22.3H315.3z"/>
	<path d="M369.7,73.5c-0.3-1.1-0.6-2.4-0.7-3.8c-1.3,1.5-3.1,2.7-5.3,3.6c-2.2,0.9-4.8,1.3-7.7,1.3c-4.9,0-8.5-1.1-10.8-3.3
		c-2.3-2.2-3.4-5-3.4-8.5c0-3.1,0.5-5.5,1.5-7.4c1-1.8,2.3-3.3,4.1-4.3c1.7-1,3.8-1.8,6.2-2.3c2.4-0.5,5-0.9,7.9-1.3
		c2.8-0.4,4.8-0.9,5.7-1.6c1-0.7,1.5-1.8,1.5-3.3c0-1.4-0.7-2.5-2-3.3c-1.3-0.8-3.1-1.2-5.3-1.2c-2.6,0-4.5,0.6-5.6,1.7
		c-1.1,1.2-1.8,2.7-2.1,4.6h-10.5c0.1-2.2,0.4-4.2,1.1-6.1c0.7-1.9,1.7-3.5,3.2-4.8c1.5-1.3,3.4-2.4,5.8-3.1
		c2.4-0.7,5.3-1.1,8.7-1.1c3.4,0,6.2,0.4,8.6,1.1c2.3,0.8,4.2,1.8,5.7,3.3c1.4,1.4,2.5,3.2,3.1,5.3c0.6,2.1,1,4.5,1,7.2v27.1H369.7z
		 M368.9,52.5c-0.6,0.6-1.4,1-2.5,1.4c-1.1,0.3-2.7,0.7-4.8,1.1c-3.2,0.6-5.5,1.5-6.7,2.4c-1.2,1-1.8,2.4-1.8,4.3
		c0,3.2,1.8,4.8,5.5,4.8c1.4,0,2.8-0.2,4-0.7c1.2-0.5,2.3-1.2,3.2-2c0.9-0.8,1.6-1.8,2.2-3c0.6-1.1,0.8-2.3,0.8-3.6L368.9,52.5z"/>
	<path d="M438.5,55.1c0.2,3.2,1.1,5.8,2.8,7.7c1.7,1.9,4,2.9,6.7,2.9c1.9,0,3.5-0.4,4.9-1.3c1.4-0.8,2.3-2,2.7-3.5h11.7
		c-1.3,4.4-3.7,7.8-7,10.2c-3.3,2.4-7.3,3.6-11.8,3.6c-14.3,0-21.4-7.8-21.4-23.3c0-3.3,0.5-6.3,1.4-9c0.9-2.7,2.3-5,4-6.9
		c1.8-1.9,3.9-3.4,6.5-4.4c2.6-1,5.5-1.5,8.8-1.5c6.6,0,11.6,2.1,15,6.4c3.4,4.2,5.1,10.6,5.1,19.1H438.5z M456.3,47.9
		c-0.1-1.6-0.3-2.9-0.8-4.1c-0.5-1.2-1.1-2.2-2-3c-0.8-0.8-1.7-1.4-2.8-1.7c-1-0.4-2.1-0.6-3.2-0.6c-2.3,0-4.2,0.8-5.9,2.5
		c-1.7,1.7-2.6,4-2.8,6.9H456.3z"/>
	<path class="st0" d="M475.6,73.5V15.7h12.1v57.8H475.6z"/>
	<path class="st0" d="M493.6,73.5V15.7h25.5c2.8,0,5.4,0.5,7.7,1.4c2.3,1,4.2,2.3,5.8,4c1.6,1.7,2.9,3.7,3.7,6
		c0.9,2.3,1.3,4.7,1.3,7.3c0,2.6-0.4,5-1.3,7.3c-0.9,2.2-2.1,4.1-3.7,5.7c-1.6,1.6-3.6,2.8-5.8,3.7c-2.3,0.9-4.8,1.3-7.7,1.3h-13.4
		v21H493.6z M517.2,42.7c3.5,0,6-0.8,7.5-2.4c1.5-1.6,2.3-3.7,2.3-6.2c0-2.4-0.8-4.4-2.3-6c-1.5-1.6-4-2.3-7.5-2.3h-11.5v17H517.2z"
		/>
	<g>
		<path d="M3.8,44c-1.9,0-3,1.6-2.5,3.2c1,3.1,3,9.4,7.7,8.3c5.7-1.3,10.4-5.5,15.2-9.3c1.7-1.5,3.3-3.1,4.7-4.8
			c-5.2,0.7-10.6,2.1-16.1,2.5C9.8,44,6.9,44.1,3.8,44L3.8,44z"/>
		<path d="M16.4,11.1c-0.8-1.7-2.8-2-4-0.9c-2.3,2.2-7.1,6.8-4.1,10.5c3.7,4.5,9.5,7,15,9.7c2.1,0.8,4.2,1.7,6.4,2.1
			c-2.9-4.4-6.5-8.6-9.3-13.4C19.1,16.6,17.7,14,16.4,11.1L16.4,11.1z"/>
		<path class="st0" d="M47.6,4.9c-1.6-0.3-3.7,0.5-4.4,2.3c-2.6,6.6-3.4,13.2-3,20.4c0.1,1.6,0.1,4.4,0.9,5c1-0.2,2.5-2.5,3.5-4.1
			c4.2-6.7,10.1-11.9,15-18c0.5-0.6,0.2-2.2-0.4-2.6C55.7,5.7,51.6,5.1,47.6,4.9L47.6,4.9z"/>
		<path d="M22.3,70.5c-0.7,0.9-2,2.1-1.1,3.4c2.1,2.7,9.7,6.2,11,2.6c4.2-11.4,4.3-18.5,4.5-27.6c-0.1-0.5-0.6-0.4-0.8-0.1
			C31.9,56.8,27.7,63.9,22.3,70.5L22.3,70.5z"/>
	</g>
</g>
</svg>
