
<svg width="192" height="50" viewBox="0 0 192 50" fill="none" xmlns="http://www.w3.org/2000/svg">
<path d="M9.65055 4.2298L7.1253 14.3308H12.3021L9.77681 4.2298H9.65055ZM4.56848 22.4432H1.22252C0.812164 22.4432 0.654336 22.1907 0.812164 21.7172L6.30459 0.72601C6.49398 0.252525 6.84121 0 7.37782 0H12.018C12.5862 0 12.9334 0.252525 13.0596 0.72601L18.5836 21.7172C18.7099 22.1907 18.5836 22.4432 18.1733 22.4432H14.7958C14.5432 22.4432 14.3538 22.3801 14.2591 22.2854C14.1644 22.1907 14.1013 22.0013 14.0382 21.7172L13.0596 17.8662H6.27302L5.29449 21.7172C5.26292 22.0013 5.16823 22.1907 5.07353 22.2854C4.97883 22.4116 4.821 22.4432 4.56848 22.4432Z" fill="#231F20"/>
<path d="M31.1785 22.4432H27.359C25.5282 22.4432 24.1078 21.9697 23.0977 20.9912C22.0876 20.0126 21.5825 18.5922 21.5825 16.7614V5.68182C21.5825 3.85101 22.0876 2.43056 23.0977 1.45202C24.1078 0.473485 25.5282 0 27.359 0H31.1785C33.0093 0 34.3982 0.505051 35.4083 1.48359C36.4184 2.46212 36.9234 3.88258 36.9234 5.68182V7.32324C36.9234 7.82829 36.6709 8.08081 36.1659 8.08081H33.2303C32.7568 8.08081 32.5042 7.82829 32.5042 7.32324V5.90278C32.5042 5.1452 32.3464 4.64015 32.0308 4.3245C31.7151 4.00884 31.1785 3.85101 30.4525 3.85101H28.085C27.359 3.85101 26.854 4.00884 26.5383 4.3245C26.2227 4.64015 26.0648 5.17677 26.0648 5.90278V16.5404C26.0648 17.298 26.2227 17.803 26.5383 18.1187C26.854 18.4344 27.359 18.5922 28.085 18.5922H30.4209C31.1785 18.5922 31.6835 18.4344 31.9992 18.1187C32.3148 17.803 32.4727 17.2664 32.4727 16.5404V15.12C32.4727 14.6149 32.7252 14.3624 33.1987 14.3624H36.1343C36.6393 14.3624 36.8919 14.6149 36.8919 15.12V16.7614C36.8919 18.5922 36.3868 19.9811 35.3767 20.9596C34.3982 21.9697 32.9777 22.4432 31.1785 22.4432Z" fill="#231F20"/>
<path d="M52.1062 22.4432H48.2868C46.456 22.4432 45.0355 21.9697 44.0254 20.9912C43.0153 20.0126 42.5103 18.5922 42.5103 16.7614V5.68182C42.5103 3.85101 43.0153 2.43056 44.0254 1.45202C45.0355 0.473485 46.456 0 48.2868 0H52.1062C53.937 0 55.3259 0.505051 56.336 1.48359C57.3461 2.46212 57.8512 3.88258 57.8512 5.68182V7.32324C57.8512 7.82829 57.5986 8.08081 57.0936 8.08081H54.158C53.6845 8.08081 53.432 7.82829 53.432 7.32324V5.90278C53.432 5.1452 53.2741 4.64015 52.9585 4.3245C52.6428 4.00884 52.1062 3.85101 51.3802 3.85101H49.0128C48.2868 3.85101 47.7817 4.00884 47.4661 4.3245C47.1504 4.64015 46.9926 5.17677 46.9926 5.90278V16.5404C46.9926 17.298 47.1504 17.803 47.4661 18.1187C47.7817 18.4344 48.2868 18.5922 49.0128 18.5922H51.3802C52.1378 18.5922 52.6428 18.4344 52.9585 18.1187C53.2741 17.803 53.432 17.2664 53.432 16.5404V15.12C53.432 14.6149 53.6845 14.3624 54.158 14.3624H57.0936C57.5986 14.3624 57.8512 14.6149 57.8512 15.12V16.7614C57.8512 18.5922 57.3461 19.9811 56.336 20.9596C55.3259 21.9697 53.9055 22.4432 52.1062 22.4432Z" fill="#231F20"/>
<path d="M75.5913 22.4432H64.1645C63.691 22.4432 63.4385 22.1907 63.4385 21.7172V0.72601C63.4385 0.252525 63.691 0 64.1645 0H75.5913C76.0647 0 76.2857 0.252525 76.2857 0.72601V3.09344C76.2857 3.56692 76.0647 3.81945 75.5913 3.81945H68.2996C68.0155 3.81945 67.8892 3.94571 67.8892 4.19823V8.74369C67.8892 8.99622 68.0155 9.12248 68.2996 9.12248H74.2655C74.739 9.12248 74.9915 9.375 74.9915 9.84849V12.2159C74.9915 12.6894 74.739 12.9419 74.2655 12.9419H68.2996C68.0155 12.9419 67.8892 13.0682 67.8892 13.3207V18.1818C67.8892 18.4344 68.0155 18.5606 68.2996 18.5606H75.5913C76.0647 18.5606 76.2857 18.8131 76.2857 19.2866V21.654C76.2857 22.2222 76.0647 22.4432 75.5913 22.4432Z" fill="#231F20"/>
<path d="M94.9093 22.4432H83.4194C82.9143 22.4432 82.6934 22.1907 82.6934 21.7172V0.72601C82.6934 0.252525 82.9459 0 83.4194 0H86.3865C86.86 0 87.1126 0.252525 87.1126 0.72601V18.1818C87.1126 18.4344 87.2388 18.5606 87.5229 18.5606H94.8777C95.3512 18.5606 95.5722 18.8131 95.5722 19.3182V21.6856C95.6037 22.2222 95.3828 22.4432 94.9093 22.4432Z" fill="#231F20"/>
<path d="M113.407 22.4432H101.98C101.506 22.4432 101.254 22.1907 101.254 21.7172V0.72601C101.254 0.252525 101.506 0 101.98 0H113.407C113.88 0 114.101 0.252525 114.101 0.72601V3.09344C114.101 3.56692 113.88 3.81945 113.407 3.81945H106.115C105.831 3.81945 105.705 3.94571 105.705 4.19823V8.74369C105.705 8.99622 105.831 9.12248 106.115 9.12248H112.081C112.554 9.12248 112.807 9.375 112.807 9.84849V12.2159C112.807 12.6894 112.554 12.9419 112.081 12.9419H106.115C105.831 12.9419 105.705 13.0682 105.705 13.3207V18.1818C105.705 18.4344 105.831 18.5606 106.115 18.5606H113.407C113.88 18.5606 114.101 18.8131 114.101 19.2866V21.654C114.101 22.2222 113.88 22.4432 113.407 22.4432Z" fill="#231F20"/>
<path d="M125.15 10.6061H128.559C129.316 10.6061 129.853 10.4482 130.2 10.1326C130.547 9.81692 130.737 9.31187 130.737 8.61743V5.90278C130.737 5.17677 130.547 4.67172 130.2 4.3245C129.853 4.00884 129.316 3.85101 128.559 3.85101H125.15C124.897 3.85101 124.771 3.97727 124.771 4.2298V10.2273C124.771 10.4798 124.897 10.6061 125.15 10.6061ZM124.045 22.4432H121.078C120.604 22.4432 120.352 22.1907 120.352 21.7172V0.72601C120.352 0.252525 120.604 0 121.078 0H129.379C131.21 0 132.631 0.505051 133.641 1.51515C134.651 2.52525 135.187 3.91414 135.187 5.74495V8.4596C135.187 11.0795 134.146 12.8472 132.094 13.6995V13.8258L135.819 21.6225C136.04 22.1907 135.819 22.4748 135.219 22.4748H132.378C131.968 22.4748 131.652 22.4432 131.463 22.3485C131.273 22.2538 131.115 22.0644 131.021 21.7487L127.517 14.2046H125.181C124.897 14.2046 124.771 14.3308 124.771 14.5833V21.7487C124.771 22.2222 124.518 22.4432 124.045 22.4432Z" fill="#231F20"/>
<path d="M149.234 4.2298L146.709 14.3308H151.886L149.36 4.2298H149.234ZM144.152 22.4432H140.806C140.396 22.4432 140.238 22.1907 140.396 21.7172L145.92 0.72601C146.077 0.252525 146.425 0 146.961 0H151.601C152.17 0 152.548 0.252525 152.643 0.72601L158.167 21.7172C158.293 22.1907 158.167 22.4432 157.757 22.4432H154.411C154.158 22.4432 153.969 22.3801 153.874 22.2854C153.78 22.1907 153.716 22.0013 153.653 21.7172L152.675 17.8662H145.857L144.878 21.7172C144.846 22.0013 144.752 22.1907 144.657 22.2854C144.562 22.4116 144.404 22.4432 144.152 22.4432Z" fill="#231F20"/>
<path d="M168.489 22.4432H165.554C165.048 22.4432 164.796 22.1907 164.796 21.7172V4.2298C164.796 3.97727 164.67 3.85101 164.417 3.85101H160.44C159.966 3.85101 159.714 3.59849 159.714 3.125V0.72601C159.714 0.252525 159.966 0 160.44 0H173.634C174.108 0 174.36 0.252525 174.36 0.72601V3.09344C174.36 3.56692 174.108 3.81945 173.634 3.81945H169.625C169.341 3.81945 169.215 3.94571 169.215 4.19823V21.6856C169.215 22.2222 168.963 22.4432 168.489 22.4432Z" fill="#231F20"/>
<path d="M190.553 22.4432H179.126C178.653 22.4432 178.4 22.1907 178.4 21.7172V0.72601C178.4 0.252525 178.653 0 179.126 0H190.553C191.027 0 191.248 0.252525 191.248 0.72601V3.09344C191.248 3.56692 191.027 3.81945 190.553 3.81945H183.262C182.977 3.81945 182.851 3.94571 182.851 4.19823V8.74369C182.851 8.99622 182.977 9.12248 183.262 9.12248H189.227C189.701 9.12248 189.953 9.375 189.953 9.84849V12.2159C189.953 12.6894 189.701 12.9419 189.227 12.9419H183.262C182.977 12.9419 182.851 13.0682 182.851 13.3207V18.1818C182.851 18.4344 182.977 18.5606 183.262 18.5606H190.553C191.027 18.5606 191.248 18.8131 191.248 19.2866V21.654C191.248 22.2222 191.027 22.4432 190.553 22.4432Z" fill="#231F20"/>
<path d="M7.66188 46.149H10.1556C10.9131 46.149 11.4182 45.9912 11.7338 45.6755C12.0495 45.3598 12.2073 44.8232 12.2073 44.0972V33.4596C12.2073 32.702 12.0495 32.197 11.7338 31.8813C11.4182 31.5656 10.8816 31.4078 10.1556 31.4078H7.66188C6.9043 31.4078 6.39925 31.5656 6.0836 31.8813C5.76794 32.197 5.64168 32.7336 5.64168 33.4596V44.0972C5.64168 44.8548 5.7995 45.3598 6.0836 45.6755C6.39925 45.9912 6.93587 46.149 7.66188 46.149ZM10.8816 50H6.96743C5.13663 50 3.71617 49.5265 2.70607 48.548C1.69597 47.5694 1.19092 46.149 1.19092 44.3182V33.2386C1.22248 31.4078 1.69597 29.9874 2.70607 29.0088C3.71617 28.0303 5.13663 27.5568 6.96743 27.5568H10.8816C12.7124 27.5568 14.1328 28.0303 15.1429 29.0088C16.153 29.9874 16.6581 31.4078 16.6581 33.2386V44.3182C16.6581 46.149 16.153 47.5694 15.1429 48.548C14.1328 49.4949 12.7124 50 10.8816 50Z" fill="#CE202F"/>
<path d="M25.307 50H22.3398C21.8663 50 21.6138 49.7474 21.6138 49.274V28.2828C21.6138 27.8093 21.8663 27.5568 22.3398 27.5568H25.307C25.7804 27.5568 26.033 27.8093 26.033 28.2828V38.226H26.0961C26.2855 37.6578 26.6327 36.9318 27.1693 36.0479L32.4724 28.2512C32.788 27.7777 33.2299 27.5252 33.8297 27.5252H37.2388C37.4913 27.5252 37.6491 27.5883 37.7123 27.7462C37.7754 27.904 37.7123 28.0934 37.5229 28.3143L30.8941 37.5L38.312 49.0846C38.4698 49.3687 38.5014 49.5896 38.4067 49.7159C38.312 49.8737 38.091 49.9368 37.7438 49.9368H35.187C34.3663 49.9368 33.8297 49.6843 33.5456 49.2108L28.2426 40.7197L26.033 43.308V49.274C26.033 49.7474 25.7804 50 25.307 50Z" fill="#CE202F"/>
<path d="M50.1493 31.755L47.624 41.8561H52.8008L50.2755 31.755H50.1493ZM45.0987 50H41.7528C41.3424 50 41.1846 49.7475 41.3424 49.274L46.8349 28.2828C46.9927 27.8093 47.3399 27.5568 47.8765 27.5568H52.5167C53.0849 27.5568 53.4637 27.8093 53.5583 28.2828L59.0823 49.274C59.2086 49.7475 59.0823 50 58.672 50H55.326C55.0735 50 54.8841 49.9369 54.7894 49.8422C54.6947 49.7475 54.6316 49.5581 54.5684 49.274L53.5899 45.423H46.7717L45.7932 49.274C45.7616 49.5581 45.6669 49.7475 45.5722 49.8422C45.4775 49.9369 45.3197 50 45.0987 50Z" fill="#CE202F"/>
<path d="M65.5534 50H62.6494C62.1759 50 61.9233 49.7475 61.9233 49.274V28.2828C61.9233 27.8093 62.1759 27.5568 62.6494 27.5568H65.2693C65.7428 27.5568 66.09 27.7146 66.2478 28.0303L73.287 41.2563H73.4132V28.2828C73.4132 27.8093 73.6658 27.5568 74.1392 27.5568H77.0433C77.5168 27.5568 77.7693 27.8093 77.7693 28.2828V49.274C77.7693 49.7475 77.5168 50 77.0433 50H74.4865C73.9814 50 73.6026 49.779 73.3817 49.3055L66.4372 36.3005H66.311V49.2424C66.2794 49.7475 66.0584 50 65.5534 50Z" fill="#CE202F"/>
<path d="M89.1014 31.755L86.5762 41.8561H91.7529L89.2277 31.755H89.1014ZM84.0509 50H80.7049C80.2946 50 80.1368 49.7475 80.2946 49.274L85.8186 28.2828C85.9764 27.8093 86.3236 27.5568 86.8602 27.5568H91.5004C92.0686 27.5568 92.4158 27.8093 92.5421 28.2828L98.0661 49.274C98.1923 49.7475 98.0661 50 97.6557 50H94.3097C94.0572 50 93.8678 49.9369 93.7731 49.8422C93.6784 49.7475 93.6153 49.5581 93.5522 49.274L92.5736 45.423H85.7554L84.7769 49.274C84.7453 49.5581 84.6506 49.7475 84.556 49.8422C84.4613 49.9369 84.2719 50 84.0509 50Z" fill="#CE202F"/>
<path d="M110.724 50H107.03C105.2 50 103.779 49.5265 102.769 48.548C101.759 47.5694 101.254 46.149 101.254 44.3182V33.2386C101.254 31.4078 101.759 29.9874 102.769 29.0088C103.779 28.0303 105.2 27.5568 107.03 27.5568H110.724C112.554 27.5568 113.943 28.0619 114.953 29.0404C115.964 30.0189 116.469 31.4394 116.469 33.2386V34.2803C116.469 34.7853 116.216 35.0379 115.743 35.0379H112.775C112.302 35.0379 112.049 34.7853 112.049 34.2803V33.428C112.049 32.6704 111.892 32.1654 111.607 31.8497C111.292 31.5341 110.787 31.3763 110.029 31.3763H107.756C107.03 31.3763 106.525 31.5341 106.21 31.8497C105.894 32.1654 105.736 32.702 105.736 33.428V44.0657C105.736 44.8232 105.894 45.3283 106.21 45.6439C106.525 45.9596 107.03 46.1174 107.756 46.1174H110.029C110.787 46.1174 111.292 45.9596 111.607 45.6439C111.923 45.3283 112.049 44.7917 112.049 44.0657V41.8561C112.049 41.6035 111.923 41.4773 111.671 41.4773H109.587C109.114 41.4773 108.861 41.2247 108.861 40.7513V38.3838C108.861 37.9103 109.114 37.6578 109.587 37.6578H115.648C116.184 37.6578 116.437 37.9103 116.437 38.447V44.2866C116.437 46.1174 115.932 47.5063 114.922 48.4848C113.943 49.4949 112.554 50 110.724 50Z" fill="#CE202F"/>
<path d="M128.054 31.755L125.528 41.8561H130.705L128.18 31.755H128.054ZM123.003 50H119.657C119.247 50 119.089 49.7475 119.247 49.274L124.771 28.2828C124.929 27.8093 125.276 27.5568 125.812 27.5568H130.453C131.021 27.5568 131.368 27.8093 131.494 28.2828L137.018 49.274C137.144 49.7475 137.018 50 136.608 50H133.262C133.009 50 132.82 49.9369 132.725 49.8422C132.631 49.7475 132.567 49.5581 132.504 49.274L131.526 45.423H124.708L123.729 49.274C123.697 49.5581 123.603 49.7475 123.508 49.8422C123.382 49.9369 123.224 50 123.003 50Z" fill="#CE202F"/>
<path d="M144.973 50H142.069C141.595 50 141.343 49.7475 141.343 49.274V28.2828C141.343 27.8093 141.595 27.5568 142.069 27.5568H144.689C145.162 27.5568 145.509 27.7146 145.667 28.0303L152.706 41.2563H152.833V28.2828C152.833 27.8093 153.085 27.5568 153.559 27.5568H156.463C156.936 27.5568 157.189 27.8093 157.189 28.2828V49.274C157.189 49.7475 156.936 50 156.463 50H153.906C153.401 50 153.022 49.779 152.801 49.3055L145.825 36.3005H145.699V49.2424C145.699 49.7475 145.446 50 144.973 50Z" fill="#CE202F"/>
<path d="M149.234 4.2298L146.709 14.3308H151.886L149.36 4.2298H149.234ZM144.152 22.4432H140.806C140.396 22.4432 140.238 22.1907 140.396 21.7172L145.92 0.72601C146.077 0.252525 146.425 0 146.961 0H151.601C152.17 0 152.548 0.252525 152.643 0.72601L158.167 21.7172C158.293 22.1907 158.167 22.4432 157.757 22.4432H154.411C154.158 22.4432 153.969 22.3801 153.874 22.2854C153.78 22.1907 153.716 22.0013 153.653 21.7172L152.675 17.8662H145.857L144.878 21.7172C144.846 22.0013 144.752 22.1907 144.657 22.2854C144.562 22.4116 144.404 22.4432 144.152 22.4432Z" fill="#231F20"/>
<path d="M168.489 22.4432H165.554C165.048 22.4432 164.796 22.1907 164.796 21.7172V4.2298C164.796 3.97727 164.67 3.85101 164.417 3.85101H160.44C159.966 3.85101 159.714 3.59849 159.714 3.125V0.72601C159.714 0.252525 159.966 0 160.44 0H173.634C174.108 0 174.36 0.252525 174.36 0.72601V3.09344C174.36 3.56692 174.108 3.81945 173.634 3.81945H169.625C169.341 3.81945 169.215 3.94571 169.215 4.19823V21.6856C169.215 22.2222 168.963 22.4432 168.489 22.4432Z" fill="#231F20"/>
<path d="M190.553 22.4432H179.126C178.653 22.4432 178.4 22.1907 178.4 21.7172V0.72601C178.4 0.252525 178.653 0 179.126 0H190.553C191.027 0 191.248 0.252525 191.248 0.72601V3.09344C191.248 3.56692 191.027 3.81945 190.553 3.81945H183.262C182.977 3.81945 182.851 3.94571 182.851 4.19823V8.74369C182.851 8.99622 182.977 9.12248 183.262 9.12248H189.227C189.701 9.12248 189.953 9.375 189.953 9.84849V12.2159C189.953 12.6894 189.701 12.9419 189.227 12.9419H183.262C182.977 12.9419 182.851 13.0682 182.851 13.3207V18.1818C182.851 18.4344 182.977 18.5606 183.262 18.5606H190.553C191.027 18.5606 191.248 18.8131 191.248 19.2866V21.654C191.248 22.2222 191.027 22.4432 190.553 22.4432Z" fill="#231F20"/>
</svg>
