
<?xml version="1.0" encoding="utf-8"?>
<!-- Generator: Adobe Illustrator 27.5.0, SVG Export Plug-In . SVG Version: 6.00 Build 0)  -->
<svg version="1.1" id="Layer_1" xmlns="http://www.w3.org/2000/svg" xmlns:xlink="http://www.w3.org/1999/xlink" x="0px" y="0px"
	 viewBox="0 0 494.8 214.9" style="enable-background:new 0 0 494.8 214.9;" xml:space="preserve">
<style type="text/css">
	.st0{fill:#643799;}
	.st1{fill:#FFFFFF;}
</style>
<g>
	<path d="M33.6,6.3l19.4,56.9h0.2L71.5,6.3h25.6v82.8H80.1V30.4h-0.2L59.6,89.1h-14L25.2,31H25v58.1h-17V6.3H33.6z"/>
	<path d="M108.4,47.6c0.2-3.9,1.2-7.1,2.9-9.6c1.7-2.6,3.9-4.6,6.5-6.1c2.6-1.5,5.6-2.6,8.9-3.3c3.3-0.7,6.6-1,9.9-1
		c3,0,6.1,0.2,9.2,0.6c3.1,0.4,5.9,1.3,8.5,2.5c2.6,1.2,4.6,3,6.3,5.2c1.6,2.2,2.4,5.1,2.4,8.8v31.2c0,2.7,0.2,5.3,0.5,7.8
		c0.3,2.5,0.8,4.3,1.6,5.6h-16.7c-0.3-0.9-0.6-1.9-0.8-2.8c-0.2-1-0.3-2-0.4-3c-2.6,2.7-5.7,4.6-9.3,5.7c-3.6,1.1-7.2,1.6-10.9,1.6
		c-2.9,0-5.5-0.3-8-1c-2.5-0.7-4.6-1.8-6.5-3.2c-1.9-1.5-3.3-3.3-4.4-5.6c-1-2.2-1.6-4.9-1.6-8c0-3.4,0.6-6.2,1.8-8.4
		c1.2-2.2,2.7-4,4.6-5.3c1.9-1.3,4.1-2.3,6.5-3c2.4-0.7,4.9-1.2,7.4-1.6c2.5-0.4,4.9-0.7,7.3-0.9c2.4-0.2,4.5-0.6,6.4-1
		c1.9-0.5,3.3-1.1,4.4-2c1.1-0.9,1.6-2.2,1.5-3.9c0-1.8-0.3-3.2-0.9-4.2c-0.6-1-1.4-1.9-2.3-2.4c-1-0.6-2.1-1-3.4-1.2
		c-1.3-0.2-2.6-0.3-4.1-0.3c-3.2,0-5.8,0.7-7.7,2.1c-1.9,1.4-2.9,3.7-3.2,7H108.4z M146.4,59.8c-0.7,0.6-1.6,1.1-2.6,1.4
		s-2.2,0.6-3.4,0.9c-1.2,0.2-2.5,0.4-3.8,0.6c-1.3,0.2-2.6,0.3-3.9,0.6c-1.2,0.2-2.5,0.5-3.7,0.9c-1.2,0.4-2.2,0.9-3.1,1.6
		c-0.9,0.7-1.6,1.5-2.1,2.5c-0.5,1-0.8,2.3-0.8,3.8c0,1.5,0.3,2.7,0.8,3.7c0.5,1,1.3,1.8,2.2,2.4c0.9,0.6,2,1,3.2,1.2
		c1.2,0.2,2.5,0.3,3.8,0.3c3.2,0,5.8-0.5,7.5-1.6c1.8-1.1,3.1-2.4,3.9-3.9c0.8-1.5,1.4-3,1.6-4.6c0.2-1.5,0.3-2.8,0.3-3.7V59.8z"/>
	<path d="M189,29.1v11.1h0.2c0.8-1.9,1.8-3.6,3.1-5.2c1.3-1.6,2.8-2.9,4.5-4.1c1.7-1.1,3.5-2,5.5-2.6c1.9-0.6,3.9-0.9,6-0.9
		c1.1,0,2.3,0.2,3.6,0.6v15.3c-0.8-0.2-1.7-0.3-2.8-0.4c-1.1-0.1-2.1-0.2-3.1-0.2c-3,0-5.6,0.5-7.7,1.5c-2.1,1-3.8,2.4-5,4.1
		c-1.3,1.7-2.2,3.8-2.7,6.1c-0.5,2.3-0.8,4.8-0.8,7.5v27h-16.5v-60H189z"/>
	<path d="M236.4,6.3v44.4l20.8-21.6h19.5l-22.6,22l25.2,37.9h-19.9l-16.5-26.8l-6.4,6.1v20.6H220V6.3H236.4z"/>
	<path d="M298,74.7c2.5,2.4,6,3.6,10.7,3.6c3.3,0,6.2-0.8,8.6-2.5c2.4-1.7,3.9-3.4,4.4-5.3h14.5c-2.3,7.2-5.9,12.3-10.7,15.4
		c-4.8,3.1-10.6,4.6-17.4,4.6c-4.7,0-9-0.8-12.8-2.3c-3.8-1.5-7-3.7-9.6-6.4c-2.6-2.8-4.7-6.1-6.1-10c-1.4-3.9-2.1-8.1-2.1-12.8
		c0-4.5,0.7-8.7,2.2-12.5c1.5-3.9,3.6-7.2,6.3-10c2.7-2.8,5.9-5,9.7-6.7c3.8-1.6,7.9-2.4,12.5-2.4c5.1,0,9.5,1,13.3,3
		c3.8,2,6.9,4.6,9.3,7.9c2.4,3.3,4.2,7.1,5.3,11.4c1.1,4.3,1.5,8.7,1.2,13.3H294C294.2,68.5,295.5,72.3,298,74.7z M316.6,43.2
		c-2-2.2-5-3.2-9-3.2c-2.6,0-4.8,0.4-6.6,1.3c-1.7,0.9-3.1,2-4.2,3.3c-1,1.3-1.8,2.7-2.2,4.2c-0.4,1.5-0.7,2.8-0.8,3.9h26.8
		C320,48.5,318.6,45.3,316.6,43.2z"/>
	<path d="M377.6,29.1l5,11h-17.1v29.7c0,2.8,0.5,4.6,1.4,5.6c0.9,0.9,2.8,1.4,5.6,1.4c0.9,0,1.8,0,2.7-0.1c0.8-0.1,1.7-0.2,2.4-0.3
		v12.8c-1.4,0.2-2.9,0.4-4.6,0.5c-1.7,0.1-3.4,0.1-5,0.1c-2.6,0-5-0.2-7.2-0.5c-2.3-0.3-4.3-1-6-2c-1.7-1-3.1-2.4-4.1-4.3
		c-1-1.9-1.5-4.3-1.5-7.3V40.2h-10v-11h10v-18h16.5v18H377.6z"/>
	<path d="M88.5,105.1c3.7,0,7.1,0.6,10,1.8c3,1.2,5.5,2.8,7.7,4.9c2.1,2.1,3.8,4.5,4.9,7.2c1.1,2.7,1.7,5.7,1.7,8.9
		c0,4.9-1,9.1-3.1,12.6c-2.1,3.6-5.4,6.3-10,8.1v0.2c2.2,0.6,4.1,1.6,5.6,2.8c1.5,1.3,2.7,2.8,3.6,4.5c0.9,1.7,1.6,3.7,2,5.7
		c0.4,2.1,0.7,4.2,0.9,6.3c0.1,1.3,0.2,2.9,0.2,4.6c0.1,1.8,0.2,3.6,0.4,5.5c0.2,1.9,0.5,3.6,0.9,5.3c0.4,1.7,1.1,3.1,1.9,4.2H97
		c-1-2.6-1.6-5.8-1.9-9.4c-0.2-3.6-0.6-7.1-1-10.4c-0.6-4.3-1.9-7.5-3.9-9.5c-2-2-5.3-3-9.9-3H62.1v32.4H43.9v-82.8H88.5z
		 M82.1,142.6c4.2,0,7.3-0.9,9.4-2.8c2.1-1.9,3.1-4.9,3.1-9c0-4-1-6.9-3.1-8.8c-2.1-1.8-5.2-2.7-9.4-2.7h-20v23.3H82.1z"/>
	<path d="M138.9,173.5c2.5,2.4,6,3.6,10.7,3.6c3.3,0,6.2-0.8,8.6-2.5c2.4-1.7,3.9-3.4,4.4-5.3H177c-2.3,7.2-5.9,12.3-10.7,15.4
		c-4.8,3.1-10.6,4.6-17.4,4.6c-4.7,0-9-0.8-12.8-2.3c-3.8-1.5-7-3.7-9.6-6.4c-2.6-2.8-4.7-6.1-6.1-10c-1.4-3.9-2.1-8.1-2.1-12.8
		c0-4.5,0.7-8.7,2.2-12.5c1.5-3.9,3.6-7.2,6.3-10c2.7-2.8,5.9-5,9.7-6.7c3.8-1.6,7.9-2.4,12.5-2.4c5.1,0,9.5,1,13.3,3
		c3.8,2,6.9,4.6,9.3,7.9c2.4,3.3,4.2,7.1,5.3,11.4c1.1,4.3,1.5,8.7,1.2,13.3h-43.3C135.1,167.3,136.4,171.1,138.9,173.5z M157.5,142
		c-2-2.2-5-3.2-9-3.2c-2.6,0-4.8,0.4-6.6,1.3c-1.7,0.9-3.1,2-4.2,3.3c-1,1.3-1.8,2.7-2.2,4.2c-0.4,1.5-0.7,2.8-0.8,3.9h26.8
		C160.8,147.3,159.5,144.1,157.5,142z"/>
	<path d="M187.1,146.4c0.2-3.9,1.2-7.1,2.9-9.6c1.7-2.6,3.9-4.6,6.5-6.1c2.6-1.5,5.6-2.6,8.9-3.3c3.3-0.7,6.6-1,9.9-1
		c3,0,6.1,0.2,9.2,0.6c3.1,0.4,5.9,1.3,8.5,2.5c2.6,1.2,4.6,3,6.3,5.2c1.6,2.2,2.4,5.1,2.4,8.8v31.2c0,2.7,0.2,5.3,0.5,7.8
		c0.3,2.5,0.8,4.3,1.6,5.6H227c-0.3-0.9-0.6-1.9-0.8-2.8c-0.2-1-0.3-2-0.4-3c-2.6,2.7-5.7,4.6-9.3,5.7c-3.6,1.1-7.2,1.6-10.9,1.6
		c-2.9,0-5.5-0.3-8-1c-2.5-0.7-4.6-1.8-6.5-3.2c-1.9-1.5-3.3-3.3-4.4-5.6c-1-2.2-1.6-4.9-1.6-8c0-3.4,0.6-6.2,1.8-8.4
		c1.2-2.2,2.7-4,4.6-5.3c1.9-1.3,4.1-2.3,6.5-3c2.4-0.7,4.9-1.2,7.4-1.6c2.5-0.4,4.9-0.7,7.3-0.9c2.4-0.2,4.5-0.6,6.4-1
		c1.9-0.5,3.3-1.1,4.4-2c1.1-0.9,1.6-2.2,1.5-3.9c0-1.8-0.3-3.2-0.9-4.2c-0.6-1-1.4-1.9-2.3-2.4c-1-0.6-2.1-1-3.4-1.2
		c-1.3-0.2-2.6-0.3-4.1-0.3c-3.2,0-5.8,0.7-7.7,2.1c-1.9,1.4-2.9,3.7-3.2,7H187.1z M225.2,158.6c-0.7,0.6-1.6,1.1-2.6,1.4
		c-1,0.3-2.2,0.6-3.4,0.9c-1.2,0.2-2.5,0.4-3.8,0.6c-1.3,0.2-2.6,0.3-3.9,0.6c-1.2,0.2-2.5,0.5-3.7,0.9c-1.2,0.4-2.2,0.9-3.1,1.6
		c-0.9,0.7-1.6,1.5-2.1,2.5c-0.5,1-0.8,2.3-0.8,3.8c0,1.5,0.3,2.7,0.8,3.7c0.5,1,1.3,1.8,2.2,2.4c0.9,0.6,2,1,3.2,1.2
		c1.2,0.2,2.5,0.3,3.8,0.3c3.2,0,5.8-0.5,7.5-1.6c1.8-1.1,3.1-2.4,3.9-3.9c0.8-1.5,1.4-3,1.6-4.6c0.2-1.5,0.3-2.8,0.3-3.7V158.6z"/>
	<path d="M297,180.3c-1.9,3.2-4.5,5.6-7.6,7c-3.1,1.4-6.7,2.1-10.6,2.1c-4.5,0-8.4-0.9-11.8-2.6c-3.4-1.7-6.2-4.1-8.4-7.1
		c-2.2-3-3.9-6.4-5-10.3c-1.1-3.9-1.7-7.9-1.7-12.1c0-4,0.6-7.9,1.7-11.7c1.1-3.8,2.8-7.1,5-9.9c2.2-2.9,5-5.2,8.3-6.9
		c3.3-1.7,7.2-2.6,11.6-2.6c3.6,0,6.9,0.8,10.1,2.3c3.2,1.5,5.7,3.7,7.6,6.7h0.2v-30.2h16.5v82.8h-15.7v-7.7H297z M296.3,150.6
		c-0.5-2.3-1.3-4.3-2.4-6c-1.1-1.7-2.6-3.1-4.4-4.2c-1.8-1.1-4-1.6-6.7-1.6c-2.7,0-5,0.5-6.8,1.6c-1.9,1.1-3.3,2.5-4.5,4.3
		c-1.1,1.8-1.9,3.8-2.4,6.1c-0.5,2.3-0.8,4.7-0.8,7.1c0,2.3,0.3,4.6,0.8,7c0.5,2.3,1.4,4.4,2.6,6.2c1.2,1.8,2.7,3.3,4.5,4.4
		c1.8,1.1,4,1.7,6.6,1.7c2.7,0,5-0.5,6.8-1.6c1.8-1.1,3.3-2.5,4.3-4.3c1.1-1.8,1.9-3.9,2.3-6.2c0.5-2.3,0.7-4.7,0.7-7.2
		C297,155.3,296.7,152.9,296.3,150.6z"/>
	<path d="M347.4,205.8c-3.2,2.1-7.6,3.1-13.2,3.1c-1.7,0-3.4-0.1-5-0.2c-1.7-0.1-3.3-0.3-5-0.4v-13.6c1.5,0.2,3.1,0.3,4.8,0.5
		c1.6,0.2,3.2,0.2,4.9,0.1c2.2-0.2,3.8-1.1,4.8-2.6c1-1.5,1.6-3.1,1.6-4.9c0-1.3-0.2-2.6-0.7-3.7l-21-56.3h17.5l13.6,41.1h0.2
		l13.1-41.1h17l-25.1,67.4C353.1,200.2,350.6,203.7,347.4,205.8z"/>
</g>
<polygon class="st0" points="445.9,10.2 389.6,10.2 428.8,100.7 389.6,191.2 445.9,191.2 485.1,100.7 "/>
</svg>
