
<?xml version="1.0" encoding="utf-8"?>
<!-- Generator: Adobe Illustrator 27.5.0, SVG Export Plug-In . SVG Version: 6.00 Build 0)  -->
<svg version="1.1" id="Layer_1" xmlns="http://www.w3.org/2000/svg" xmlns:xlink="http://www.w3.org/1999/xlink" x="0px" y="0px"
	 viewBox="0 0 580.9 214.9" style="enable-background:new 0 0 580.9 214.9;" xml:space="preserve">
<style type="text/css">
	.st0{fill:#4279BC;}
	.st1{fill:#FFFFFF;}
</style>
<g>
	<path class="st0" d="M102.7,147.7c-22.7,0-41.1-18.4-41.1-41.1S80,65.5,102.7,65.5V3.9C46.1,3.9,0,50,0,106.6
		s46.1,102.7,102.7,102.7V147.7z"/>
	<g>
		<path d="M144.5,73.1c1.1,2.1,2.5,3.8,4.4,5.1c1.8,1.3,3.9,2.3,6.4,2.9c2.4,0.6,5,0.9,7.6,0.9c1.8,0,3.7-0.1,5.7-0.4
			c2-0.3,3.9-0.9,5.7-1.7c1.8-0.8,3.2-2,4.4-3.5c1.2-1.5,1.8-3.3,1.8-5.6c0-2.4-0.8-4.4-2.3-5.9c-1.6-1.5-3.6-2.8-6.1-3.8
			s-5.4-1.9-8.6-2.7c-3.2-0.8-6.4-1.6-9.7-2.5c-3.4-0.8-6.6-1.9-9.8-3.1c-3.2-1.2-6.1-2.8-8.6-4.7c-2.5-1.9-4.6-4.4-6.1-7.3
			c-1.6-2.9-2.3-6.4-2.3-10.5c0-4.6,1-8.6,3-12c2-3.4,4.6-6.2,7.8-8.5c3.2-2.3,6.8-4,10.8-5c4-1.1,8.1-1.6,12.1-1.6
			c4.7,0,9.2,0.5,13.6,1.6c4.3,1.1,8.2,2.8,11.5,5.1c3.4,2.4,6,5.4,8,9c2,3.7,3,8.1,3,13.3h-19.2c-0.2-2.7-0.7-4.9-1.7-6.7
			c-1-1.8-2.3-3.2-3.8-4.2c-1.6-1-3.4-1.7-5.5-2.1c-2.1-0.4-4.3-0.6-6.7-0.6c-1.6,0-3.2,0.2-4.8,0.5c-1.6,0.3-3,0.9-4.4,1.8
			c-1.3,0.8-2.4,1.9-3.2,3.2c-0.8,1.3-1.3,2.9-1.3,4.8c0,1.8,0.3,3.2,1,4.3c0.7,1.1,2,2.1,4,3c2,0.9,4.7,1.9,8.2,2.8
			c3.5,0.9,8.1,2.1,13.7,3.5c1.7,0.3,4,0.9,7,1.8c3,0.9,6,2.3,8.9,4.2c2.9,1.9,5.5,4.5,7.6,7.8c2.1,3.2,3.2,7.4,3.2,12.4
			c0,4.1-0.8,7.9-2.4,11.5c-1.6,3.5-4,6.6-7.1,9.1c-3.2,2.6-7.1,4.6-11.7,6c-4.7,1.4-10.1,2.1-16.2,2.1c-5,0-9.8-0.6-14.4-1.8
			c-4.7-1.2-8.8-3.1-12.4-5.7s-6.4-5.9-8.5-10c-2.1-4-3.1-8.8-3-14.4h19.2C142.8,68.4,143.4,71,144.5,73.1z"/>
		<path d="M245.2,30.1v12H232v32.3c0,3,0.5,5,1.5,6.1c1,1,3,1.5,6.1,1.5c1,0,2,0,2.9-0.1c0.9-0.1,1.8-0.2,2.7-0.4v13.9
			c-1.5,0.3-3.2,0.4-5,0.5c-1.9,0.1-3.7,0.1-5.4,0.1c-2.8,0-5.4-0.2-7.9-0.6c-2.5-0.4-4.7-1.1-6.6-2.2c-1.9-1.1-3.4-2.6-4.5-4.7
			c-1.1-2-1.6-4.7-1.6-7.9V42h-10.8v-12h10.8V10.5H232v19.6H245.2z"/>
		<path d="M253,50.1c0.3-4.2,1.3-7.7,3.2-10.5c1.8-2.8,4.2-5,7.1-6.7c2.9-1.7,6.1-2.9,9.7-3.6c3.6-0.7,7.2-1.1,10.8-1.1
			c3.3,0,6.6,0.2,10,0.7c3.4,0.5,6.4,1.4,9.2,2.7c2.8,1.3,5,3.2,6.8,5.6c1.8,2.4,2.7,5.6,2.7,9.5v33.9c0,2.9,0.2,5.8,0.5,8.5
			c0.3,2.7,0.9,4.7,1.8,6.1h-18.2c-0.3-1-0.6-2-0.8-3.1c-0.2-1.1-0.4-2.1-0.4-3.2c-2.9,2.9-6.2,5-10.1,6.2
			c-3.9,1.2-7.8,1.8-11.9,1.8c-3.1,0-6-0.4-8.7-1.1c-2.7-0.8-5-1.9-7.1-3.5c-2-1.6-3.6-3.6-4.7-6.1c-1.1-2.4-1.7-5.3-1.7-8.7
			c0-3.7,0.7-6.7,2-9.1c1.3-2.4,3-4.3,5-5.7c2.1-1.4,4.4-2.5,7.1-3.2c2.7-0.7,5.3-1.3,8-1.7c2.7-0.4,5.3-0.8,7.9-1
			c2.6-0.3,4.9-0.6,6.9-1.1c2-0.5,3.6-1.2,4.8-2.2c1.2-1,1.7-2.4,1.6-4.2c0-1.9-0.3-3.5-0.9-4.6c-0.6-1.1-1.5-2-2.5-2.7
			c-1.1-0.6-2.3-1.1-3.7-1.3c-1.4-0.2-2.9-0.3-4.5-0.3c-3.5,0-6.3,0.8-8.3,2.3c-2,1.5-3.2,4-3.5,7.6H253z M294.4,63.4
			c-0.8,0.7-1.7,1.2-2.8,1.6c-1.1,0.4-2.4,0.7-3.7,0.9c-1.3,0.3-2.7,0.5-4.1,0.6c-1.4,0.2-2.9,0.4-4.3,0.6c-1.3,0.3-2.7,0.6-4,1
			c-1.3,0.4-2.4,1-3.4,1.7c-1,0.7-1.7,1.6-2.3,2.7c-0.6,1.1-0.9,2.5-0.9,4.2c0,1.6,0.3,2.9,0.9,4c0.6,1.1,1.4,2,2.4,2.6
			c1,0.6,2.2,1.1,3.5,1.3c1.3,0.3,2.7,0.4,4.2,0.4c3.5,0,6.3-0.6,8.2-1.8c1.9-1.2,3.4-2.6,4.3-4.2c0.9-1.6,1.5-3.3,1.7-5
			c0.2-1.7,0.3-3,0.3-4V63.4z"/>
		<path d="M343.2,30.1v12.1h0.3c0.8-2,2-3.9,3.4-5.6c1.4-1.7,3.1-3.2,4.9-4.4c1.8-1.2,3.8-2.2,5.9-2.8c2.1-0.7,4.3-1,6.6-1
			c1.2,0,2.5,0.2,3.9,0.6v16.7c-0.8-0.2-1.9-0.3-3-0.4c-1.2-0.1-2.3-0.2-3.4-0.2c-3.3,0-6.1,0.5-8.3,1.6c-2.3,1.1-4.1,2.6-5.5,4.5
			c-1.4,1.9-2.4,4.1-3,6.6c-0.6,2.5-0.9,5.3-0.9,8.2v29.4h-17.9V30.1H343.2z"/>
		<path d="M416.1,30.1v12H403v32.3c0,3,0.5,5,1.5,6.1c1,1,3,1.5,6.1,1.5c1,0,2,0,2.9-0.1c0.9-0.1,1.8-0.2,2.7-0.4v13.9
			c-1.5,0.3-3.2,0.4-5,0.5c-1.9,0.1-3.7,0.1-5.4,0.1c-2.8,0-5.4-0.2-7.9-0.6c-2.5-0.4-4.7-1.1-6.6-2.2c-1.9-1.1-3.4-2.6-4.5-4.7
			c-1.1-2-1.6-4.7-1.6-7.9V42h-10.8v-12h10.8V10.5H403v19.6H416.1z"/>
		<path d="M468.8,95.3v-9.1h-0.4c-2.3,3.8-5.2,6.5-8.8,8.2c-3.6,1.7-7.3,2.5-11.1,2.5c-4.8,0-8.7-0.6-11.8-1.9
			c-3.1-1.3-5.5-3-7.3-5.4c-1.8-2.3-3-5.1-3.7-8.5c-0.7-3.3-1.1-7-1.1-11V30.1h17.9v36.8c0,5.4,0.8,9.4,2.5,12c1.7,2.6,4.7,4,9,4
			c4.9,0,8.4-1.5,10.6-4.4c2.2-2.9,3.3-7.7,3.3-14.3V30.1h17.9v65.2H468.8z"/>
		<path d="M516.5,30.1v8.3h0.3c2.2-3.5,5-6.1,8.3-7.7c3.4-1.6,7.1-2.4,11.1-2.4c5.1,0,9.5,1,13.2,2.9c3.7,1.9,6.8,4.5,9.2,7.7
			c2.4,3.2,4.2,6.9,5.4,11.2c1.2,4.2,1.8,8.7,1.8,13.3c0,4.4-0.6,8.6-1.8,12.6c-1.2,4-3,7.6-5.4,10.7c-2.4,3.1-5.4,5.6-9,7.4
			c-3.6,1.8-7.8,2.8-12.6,2.8c-4,0-7.8-0.8-11.2-2.5c-3.4-1.6-6.2-4.1-8.4-7.3h-0.3v30.9h-17.9V30.1H516.5z M539.8,81.8
			c2-1.2,3.6-2.7,4.8-4.6c1.2-1.9,2.1-4.1,2.6-6.6c0.5-2.5,0.8-5.1,0.8-7.7s-0.3-5.2-0.8-7.7c-0.5-2.5-1.5-4.8-2.7-6.8
			c-1.3-2-2.9-3.6-4.9-4.8c-2-1.2-4.4-1.8-7.3-1.8c-2.9,0-5.4,0.6-7.4,1.8c-2,1.2-3.6,2.8-4.8,4.7c-1.2,1.9-2.1,4.2-2.6,6.7
			c-0.5,2.5-0.8,5.1-0.8,7.8c0,2.6,0.3,5.2,0.8,7.7c0.5,2.5,1.4,4.7,2.7,6.6c1.2,1.9,2.8,3.4,4.9,4.6c2,1.2,4.5,1.8,7.3,1.8
			C535.4,83.6,537.8,83,539.8,81.8z"/>
		<path d="M166.7,119.8c4.3,0,8.2,0.4,11.7,1.1c3.5,0.8,6.6,2,9.1,3.7c2.5,1.7,4.5,4,5.9,6.9c1.4,2.9,2.1,6.4,2.1,10.6
			c0,4.5-1,8.3-3.1,11.4c-2.1,3-5.1,5.5-9.1,7.4c5.6,1.6,9.7,4.4,12.4,8.4c2.7,4,4.1,8.8,4.1,14.4c0,4.5-0.9,8.5-2.6,11.8
			c-1.8,3.3-4.1,6-7.1,8.1c-3,2.1-6.4,3.7-10.2,4.7c-3.8,1-7.8,1.5-11.8,1.5h-43.7v-90.1H166.7z M164.2,156.2c3.5,0,6.4-0.8,8.7-2.5
			c2.3-1.7,3.4-4.4,3.4-8.2c0-2.1-0.4-3.8-1.1-5.2c-0.8-1.3-1.8-2.4-3-3.2c-1.3-0.8-2.7-1.3-4.4-1.6c-1.6-0.3-3.3-0.4-5.1-0.4h-18.5
			v21.1H164.2z M165.3,194.5c1.9,0,3.8-0.2,5.6-0.6c1.8-0.4,3.3-1,4.7-1.9c1.3-0.9,2.4-2.1,3.2-3.6c0.8-1.5,1.2-3.4,1.2-5.8
			c0-4.6-1.3-7.9-3.9-9.9c-2.6-2-6.1-3-10.3-3h-21.6v24.7H165.3z"/>
		<path d="M210.5,164.7c0.3-4.2,1.3-7.7,3.2-10.5c1.8-2.8,4.2-5,7.1-6.7c2.9-1.7,6.1-2.9,9.7-3.6c3.6-0.7,7.2-1.1,10.8-1.1
			c3.3,0,6.6,0.2,10,0.7c3.4,0.5,6.4,1.4,9.2,2.7c2.8,1.3,5,3.2,6.8,5.6c1.8,2.4,2.7,5.6,2.7,9.5v33.9c0,2.9,0.2,5.8,0.5,8.5
			c0.3,2.7,0.9,4.7,1.8,6.1h-18.2c-0.3-1-0.6-2-0.8-3.1c-0.2-1.1-0.4-2.1-0.4-3.2c-2.9,2.9-6.2,5-10.1,6.2
			c-3.9,1.2-7.8,1.8-11.9,1.8c-3.1,0-6-0.4-8.7-1.1c-2.7-0.8-5-1.9-7.1-3.5c-2-1.6-3.6-3.6-4.7-6.1c-1.1-2.4-1.7-5.3-1.7-8.7
			c0-3.7,0.7-6.7,2-9.1c1.3-2.4,3-4.3,5-5.7c2.1-1.4,4.4-2.5,7.1-3.2c2.7-0.7,5.3-1.3,8-1.7c2.7-0.4,5.3-0.8,7.9-1s4.9-0.6,6.9-1.1
			c2-0.5,3.6-1.2,4.8-2.2c1.2-1,1.7-2.4,1.6-4.2c0-1.9-0.3-3.5-0.9-4.6c-0.6-1.1-1.5-2-2.5-2.7c-1.1-0.6-2.3-1.1-3.7-1.3
			c-1.4-0.2-2.9-0.3-4.5-0.3c-3.5,0-6.3,0.8-8.3,2.3c-2,1.5-3.2,4-3.5,7.6H210.5z M251.8,177.9c-0.8,0.7-1.7,1.2-2.8,1.6
			c-1.1,0.4-2.4,0.7-3.7,0.9c-1.3,0.3-2.7,0.5-4.1,0.6c-1.4,0.2-2.9,0.4-4.3,0.6c-1.3,0.3-2.7,0.6-4,1c-1.3,0.4-2.4,1-3.4,1.7
			c-1,0.7-1.7,1.6-2.3,2.7c-0.6,1.1-0.9,2.5-0.9,4.2c0,1.6,0.3,2.9,0.9,4c0.6,1.1,1.4,2,2.4,2.6c1,0.6,2.2,1.1,3.5,1.3
			c1.3,0.3,2.7,0.4,4.2,0.4c3.5,0,6.3-0.6,8.2-1.8c1.9-1.2,3.4-2.6,4.3-4.2c0.9-1.6,1.5-3.3,1.7-5c0.2-1.7,0.3-3,0.3-4V177.9z"/>
		<path d="M298.7,193.6c0.8,1.4,1.8,2.5,3.1,3.4c1.3,0.9,2.7,1.5,4.4,2c1.6,0.4,3.3,0.6,5.1,0.6c1.3,0,2.6-0.1,4-0.4
			c1.4-0.3,2.7-0.8,3.8-1.4c1.1-0.6,2.1-1.5,2.8-2.5c0.8-1.1,1.1-2.4,1.1-4c0-2.7-1.8-4.7-5.4-6.1c-3.6-1.3-8.6-2.7-15-4
			c-2.6-0.6-5.2-1.3-7.6-2.1c-2.5-0.8-4.7-1.8-6.6-3.2c-1.9-1.3-3.5-2.9-4.7-4.9c-1.2-2-1.8-4.4-1.8-7.3c0-4.2,0.8-7.7,2.5-10.3
			c1.6-2.7,3.8-4.8,6.5-6.4c2.7-1.6,5.7-2.6,9.1-3.3c3.4-0.6,6.8-0.9,10.3-0.9c3.5,0,7,0.3,10.3,1c3.3,0.7,6.3,1.8,8.9,3.4
			c2.6,1.6,4.8,3.7,6.5,6.4c1.7,2.7,2.8,6,3.1,10h-17c-0.3-3.4-1.6-5.8-3.9-7c-2.4-1.2-5.1-1.8-8.3-1.8c-1,0-2.1,0.1-3.3,0.2
			c-1.2,0.1-2.3,0.4-3.2,0.8c-1,0.4-1.8,1-2.5,1.8c-0.7,0.8-1,1.9-1,3.2c0,1.6,0.6,2.9,1.8,3.9c1.2,1,2.7,1.8,4.6,2.5
			c1.9,0.6,4.1,1.2,6.5,1.7c2.4,0.5,4.9,1.1,7.4,1.6c2.6,0.6,5.2,1.3,7.6,2.1c2.5,0.8,4.7,2,6.6,3.3c1.9,1.4,3.5,3.1,4.7,5.2
			c1.2,2.1,1.8,4.6,1.8,7.6c0,4.3-0.9,7.9-2.6,10.8c-1.7,2.9-4,5.2-6.8,7c-2.8,1.8-6,3-9.5,3.7c-3.6,0.7-7.2,1.1-10.9,1.1
			c-3.8,0-7.5-0.4-11.1-1.1c-3.6-0.8-6.8-2-9.7-3.8c-2.8-1.8-5.1-4.1-6.9-7c-1.8-2.9-2.8-6.5-3-10.9h17
			C297.5,190.6,297.9,192.3,298.7,193.6z"/>
		<path d="M351.9,134.5v-14.8h17.9v14.8H351.9z M369.8,144.6v65.2h-17.9v-65.2H369.8z"/>
		<path d="M415.1,156.4c-2.9,0-5.3,0.7-7.2,2c-1.9,1.3-3.5,3-4.7,5c-1.2,2.1-2.1,4.3-2.6,6.8c-0.5,2.5-0.8,4.9-0.8,7.4
			c0,2.4,0.3,4.8,0.8,7.2c0.5,2.4,1.3,4.6,2.5,6.6c1.1,2,2.7,3.6,4.6,4.9c1.9,1.3,4.3,1.9,7.1,1.9c4.3,0,7.6-1.2,9.9-3.6
			c2.3-2.4,3.8-5.6,4.4-9.7h17.3c-1.2,8.7-4.5,15.3-10.1,19.8c-5.6,4.5-12.7,6.8-21.3,6.8c-4.9,0-9.4-0.8-13.4-2.5
			c-4.1-1.6-7.5-3.9-10.4-6.9c-2.9-2.9-5.1-6.5-6.7-10.5c-1.6-4.1-2.4-8.6-2.4-13.4c0-5,0.7-9.7,2.2-14.1c1.5-4.3,3.6-8.1,6.5-11.2
			c2.9-3.2,6.3-5.6,10.5-7.4c4.1-1.8,8.8-2.7,14.1-2.7c3.9,0,7.6,0.5,11.2,1.5c3.6,1,6.8,2.5,9.6,4.6c2.8,2.1,5.1,4.6,6.9,7.7
			c1.8,3.1,2.8,6.7,3,10.9h-17.5C427.2,160.1,422.8,156.4,415.1,156.4z"/>
		<path d="M471.4,193.6c0.8,1.4,1.8,2.5,3.1,3.4c1.3,0.9,2.7,1.5,4.4,2c1.6,0.4,3.3,0.6,5.1,0.6c1.3,0,2.6-0.1,4-0.4
			c1.4-0.3,2.7-0.8,3.8-1.4c1.1-0.6,2.1-1.5,2.8-2.5c0.8-1.1,1.1-2.4,1.1-4c0-2.7-1.8-4.7-5.4-6.1c-3.6-1.3-8.6-2.7-15-4
			c-2.6-0.6-5.2-1.3-7.6-2.1c-2.5-0.8-4.7-1.8-6.6-3.2c-1.9-1.3-3.5-2.9-4.7-4.9c-1.2-2-1.8-4.4-1.8-7.3c0-4.2,0.8-7.7,2.5-10.3
			c1.6-2.7,3.8-4.8,6.5-6.4c2.7-1.6,5.7-2.6,9.1-3.3c3.4-0.6,6.8-0.9,10.3-0.9c3.5,0,7,0.3,10.3,1c3.3,0.7,6.3,1.8,8.9,3.4
			c2.6,1.6,4.8,3.7,6.5,6.4c1.7,2.7,2.8,6,3.1,10h-17c-0.3-3.4-1.6-5.8-3.9-7c-2.4-1.2-5.1-1.8-8.3-1.8c-1,0-2.1,0.1-3.3,0.2
			c-1.2,0.1-2.3,0.4-3.2,0.8c-1,0.4-1.8,1-2.5,1.8c-0.7,0.8-1,1.9-1,3.2c0,1.6,0.6,2.9,1.8,3.9c1.2,1,2.7,1.8,4.6,2.5
			c1.9,0.6,4.1,1.2,6.5,1.7c2.4,0.5,4.9,1.1,7.4,1.6c2.6,0.6,5.2,1.3,7.6,2.1c2.5,0.8,4.7,2,6.6,3.3c1.9,1.4,3.5,3.1,4.7,5.2
			c1.2,2.1,1.8,4.6,1.8,7.6c0,4.3-0.9,7.9-2.6,10.8c-1.7,2.9-4,5.2-6.8,7c-2.8,1.8-6,3-9.5,3.7c-3.6,0.7-7.2,1.1-10.9,1.1
			c-3.8,0-7.5-0.4-11.1-1.1c-3.6-0.8-6.8-2-9.7-3.8c-2.8-1.8-5.1-4.1-6.9-7c-1.8-2.9-2.8-6.5-3-10.9h17
			C470.2,190.6,470.6,192.3,471.4,193.6z"/>
	</g>
</g>
</svg>
