
<?xml version="1.0" encoding="utf-8"?>
<!-- Generator: Adobe Illustrator 27.5.0, SVG Export Plug-In . SVG Version: 6.00 Build 0)  -->
<svg version="1.1" id="Layer_1" xmlns="http://www.w3.org/2000/svg" xmlns:xlink="http://www.w3.org/1999/xlink" x="0px" y="0px"
	 viewBox="0 0 841.4 88.4" style="enable-background:new 0 0 841.4 88.4;" xml:space="preserve">
<style type="text/css">
	.st0{fill:#777777;}
</style>
<g id="ThreeSixty_colour_00000037667031018836378820000003784176237295480728_">
	<g id="Artwork_9_00000044139266748777197920000013258962636378122405_">
		<path class="st0" d="M457.1,18.2c5.2,0,9.6,4.3,9.6,9.6s-4.3,9.6-9.6,9.6c-5.2,0-9.6-4.3-9.6-9.6S451.9,18.2,457.1,18.2
			 M457.1,3.8c-13.2,0-23.9,10.7-23.9,23.9s10.7,23.9,23.9,23.9c13.2,0,23.9-10.7,23.9-23.9S470.3,3.8,457.1,3.8L457.1,3.8z"/>
	</g>
	<g>
		<path d="M1.1,22.2V11h49.5v11.2H32.4v49.2H19.2V22.2H1.1z"/>
		<path d="M68.2,11v22.7h0.2c1.5-2.6,3.5-4.4,5.8-5.6c2.3-1.2,4.7-1.7,7-1.7c3.3,0,5.8,0.5,7.9,1.3c2.1,0.9,3.7,2.1,4.9,3.6
			c1.2,1.5,2,3.5,2.4,5.7c0.5,2.2,0.7,4.7,0.7,7.5v26.9h-12V46.7c0-3.6-0.6-6.3-1.7-8c-1.2-1.7-3.1-2.7-6.1-2.7
			c-3.3,0-5.6,0.9-7.1,2.9c-1.5,2-2.2,5.1-2.2,9.6v23H56.2V11H68.2z"/>
		<path d="M117.7,27.7v8.2h0.1c0.6-1.4,1.3-2.6,2.3-3.7c0.9-1.2,2.1-2.1,3.3-2.9c1.3-0.8,2.6-1.4,4-1.9c1.4-0.5,2.9-0.7,4.4-0.7
			c0.8,0,1.6,0.1,2.7,0.5v11.2c-0.6-0.1-1.3-0.2-2-0.3c-0.8-0.1-1.5-0.1-2.3-0.1c-2.2,0-4.1,0.3-5.6,1c-1.5,0.7-2.8,1.7-3.7,3
			c-0.9,1.3-1.6,2.8-2,4.4c-0.3,1.7-0.6,3.5-0.6,5.5v19.7h-12V27.7H117.7z"/>
		<path d="M150.6,60.9c1.7,1.7,4.4,2.7,7.8,2.7c2.4,0,4.5-0.6,6.3-1.9c1.7-1.2,2.8-2.4,3.3-3.8h10.6c-1.7,5.2-4.3,9-7.8,11.3
			c-3.5,2.2-7.7,3.4-12.7,3.4c-3.5,0-6.5-0.6-9.3-1.6c-2.8-1-5.1-2.7-7-4.7c-1.9-2-3.4-4.4-4.4-7.2c-1-2.8-1.5-5.9-1.5-9.3
			c0-3.3,0.6-6.3,1.6-9.1c1-2.8,2.6-5.2,4.5-7.3s4.3-3.7,7.1-4.9c2.7-1.2,5.7-1.7,9.1-1.7c3.7,0,7,0.7,9.7,2.2
			c2.8,1.4,5,3.4,6.8,5.8c1.7,2.4,3,5.2,3.8,8.3c0.8,3.1,1,6.3,0.8,9.7h-31.6C147.8,56.4,148.8,59.2,150.6,60.9z M164.2,38
			c-1.4-1.6-3.6-2.3-6.5-2.3c-1.9,0-3.5,0.3-4.8,0.9c-1.3,0.7-2.3,1.4-3,2.4c-0.8,0.9-1.3,2-1.6,3c-0.3,1-0.5,2-0.6,2.9h19.6
			C166.7,41.8,165.6,39.5,164.2,38z"/>
		<path d="M199.2,60.9c1.7,1.7,4.4,2.7,7.8,2.7c2.4,0,4.5-0.6,6.3-1.9c1.7-1.2,2.8-2.4,3.3-3.8h10.6c-1.7,5.2-4.3,9-7.8,11.3
			c-3.5,2.2-7.7,3.4-12.7,3.4c-3.5,0-6.5-0.6-9.3-1.6c-2.8-1-5.1-2.7-7-4.7c-1.9-2-3.4-4.4-4.4-7.2c-1-2.8-1.5-5.9-1.5-9.3
			c0-3.3,0.6-6.3,1.6-9.1c1-2.8,2.6-5.2,4.5-7.3c2-2.1,4.3-3.7,7.1-4.9c2.7-1.2,5.7-1.7,9.1-1.7c3.7,0,7,0.7,9.7,2.2
			c2.8,1.4,5,3.4,6.8,5.8c1.7,2.4,3,5.2,3.8,8.3c0.8,3.1,1,6.3,0.8,9.7h-31.6C196.4,56.4,197.3,59.2,199.2,60.9z M212.7,38
			c-1.4-1.6-3.6-2.3-6.5-2.3c-1.9,0-3.5,0.3-4.8,0.9c-1.3,0.7-2.3,1.4-3,2.4c-0.8,0.9-1.3,2-1.6,3c-0.3,1-0.5,2-0.6,2.9h19.6
			C215.1,41.8,214.2,39.5,212.7,38z"/>
		<path d="M246.2,56.6c0.7,1.4,1.7,2.6,2.9,3.4c1.2,0.9,2.7,1.5,4.3,2s3.4,0.6,5.1,0.6c1.2,0,2.4-0.1,3.8-0.3
			c1.4-0.2,2.7-0.6,3.8-1.2c1.2-0.6,2.2-1.3,2.9-2.3c0.8-0.9,1.2-2.2,1.2-3.7c0-1.6-0.5-2.9-1.5-4c-1-1-2.4-1.9-4.1-2.6
			c-1.7-0.7-3.6-1.3-5.7-1.7c-2.1-0.5-4.3-1-6.5-1.7c-2.2-0.6-4.4-1.3-6.6-2.1c-2.1-0.8-4.1-1.9-5.7-3.1c-1.7-1.3-3-2.9-4.1-4.9
			s-1.5-4.3-1.5-7.1c0-3.1,0.7-5.8,2-8c1.3-2.3,3-4.2,5.2-5.7c2.2-1.5,4.5-2.7,7.2-3.4c2.7-0.7,5.4-1,8.2-1c3.1,0,6.2,0.3,9.1,1
			s5.5,1.9,7.7,3.4c2.2,1.6,4.1,3.6,5.4,6.1c1.3,2.4,2,5.5,2,9h-12.8c-0.1-1.7-0.5-3.3-1.2-4.4s-1.5-2.1-2.6-2.8
			c-1-0.7-2.3-1.2-3.7-1.4s-2.9-0.5-4.5-0.5c-1,0-2.1,0.1-3.3,0.3c-1,0.2-2.1,0.6-2.9,1.2c-0.9,0.6-1.6,1.3-2.2,2.1
			c-0.6,0.8-0.8,1.9-0.8,3.3c0,1.2,0.2,2.1,0.7,2.9c0.5,0.7,1.3,1.4,2.7,2c1.3,0.6,3.1,1.3,5.5,1.9c2.3,0.6,5.4,1.4,9.2,2.3
			c1.2,0.2,2.7,0.6,4.7,1.3c2,0.6,4,1.5,5.9,2.8c2,1.3,3.7,3,5.1,5.2s2.2,4.9,2.2,8.4c0,2.8-0.6,5.4-1.6,7.7c-1,2.3-2.7,4.4-4.8,6.2
			c-2.1,1.7-4.8,3-7.9,4c-3.1,0.9-6.8,1.4-10.8,1.4c-3.4,0-6.5-0.5-9.7-1.3s-5.9-2.1-8.3-3.8c-2.4-1.7-4.3-4-5.7-6.6s-2.1-5.9-2-9.7
			h12.8C245.2,53.5,245.5,55.2,246.2,56.6z"/>
		<path d="M290,20.9V11h12v9.9H290z M302,27.7v43.7h-12V27.7H302z"/>
		<path d="M308.3,27.7h13.7l7.7,11.4l7.6-11.4h13.3l-14.3,20.5l16.2,23.3h-13.7l-9.1-13.7l-9.1,13.7h-13.4l15.5-23.1L308.3,27.7z"/>
		<path d="M380.9,27.7v8h-8.7v21.7c0,2,0.3,3.4,1,4.1s2,1,4.1,1c0.7,0,1.3,0,2-0.1c0.6,0,1.2-0.1,1.7-0.2v9.3
			c-1,0.1-2.1,0.2-3.4,0.3c-1.3,0-2.4,0.1-3.6,0.1c-1.9,0-3.6-0.1-5.2-0.3c-1.6-0.2-3.1-0.7-4.4-1.5c-1.3-0.7-2.2-1.7-3-3.1
			c-0.7-1.4-1-3.1-1-5.4V35.7h-7.2v-8h7.2v-13h12v13.2h8.6V27.7z"/>
		<path d="M402.8,84.4c-2.3,1.5-5.5,2.3-9.7,2.3c-1.3,0-2.4,0-3.7-0.1c-1.2-0.1-2.4-0.2-3.7-0.3v-9.9c1.2,0.1,2.3,0.2,3.5,0.3
			c1.2,0.1,2.3,0.1,3.5,0.1c1.6-0.1,2.8-0.8,3.5-1.9c0.8-1,1.2-2.2,1.2-3.5c0-0.9-0.1-1.9-0.5-2.7l-15.3-41h12.8l9.9,29.9h0.1
			l9.6-29.9h12.5L408.2,77C407,80.4,405.2,82.9,402.8,84.4z"/>
	</g>
</g>
</svg>
